<?xml version="1.0" encoding="utf-8"?>
<svg viewBox="346 656.7 808 186.6" xmlns="http://www.w3.org/2000/svg">
  <defs>
    <style type="text/css">
	.st0{fill:#040459;}
	.st1{fill:#7FB226;}
</style>
  </defs>
  <g>
    <g>
      <path class="st0" d="M598.4,773.9c3.6,0,7.1-0.7,10.4-2.2c3.3-1.5,6.1-3.6,8.4-6.3l6.3,6.3c-3.1,3.4-6.9,6.1-11.4,8 c-4.5,2-9.2,2.9-14,2.9c-4.7,0-9-0.8-13.1-2.5c-4.1-1.7-7.6-4-10.6-6.9c-3-2.9-5.3-6.4-7-10.4c-1.7-4-2.6-8.3-2.6-12.8 c0-4.6,0.9-8.9,2.6-12.9c1.7-4,4.1-7.4,7-10.4c3-2.9,6.5-5.2,10.6-6.9c4.1-1.7,8.4-2.5,13.1-2.5c5,0,9.7,1,14.3,2.9 c4.6,2,8.3,4.6,11.3,8l-6.3,6.5c-2.4-2.8-5.3-4.9-8.7-6.4c-3.4-1.5-6.9-2.3-10.5-2.3c-3.3,0-6.4,0.6-9.3,1.8 c-2.9,1.2-5.4,2.9-7.5,5c-2.1,2.1-3.7,4.7-4.9,7.6c-1.2,2.9-1.8,6.1-1.8,9.5c0,3.4,0.6,6.5,1.8,9.5c1.2,2.9,2.9,5.5,5,7.6 c2.1,2.1,4.6,3.8,7.6,5C591.9,773.3,595,773.9,598.4,773.9z"/>
      <path class="st0" d="M646.4,782.5c-5,0-9.1-1.3-12.2-3.9c-3.1-2.6-4.7-6-4.7-10.2c0-4.4,1.7-7.8,5-10.3c3.3-2.5,7.9-3.8,13.7-3.8 c2.2,0,4.4,0.2,6.5,0.7c2.1,0.5,4.1,1.1,6.1,1.9v-4.9c0-3.3-1-5.7-2.9-7.3c-1.9-1.6-4.7-2.4-8.3-2.4c-2.1,0-4.3,0.3-6.6,1 c-2.3,0.6-4.9,1.6-7.7,2.9l-3.4-6.8c3.4-1.6,6.7-2.8,9.8-3.6c3.1-0.8,6.1-1.1,9.2-1.1c6,0,10.6,1.4,13.9,4.3 c3.3,2.9,4.9,6.9,4.9,12.2v30.5h-8.9v-4c-2.1,1.6-4.3,2.8-6.6,3.6C651.7,782.1,649.2,782.5,646.4,782.5z M638.1,768.3 c0,2.2,1,4,2.9,5.4c1.9,1.4,4.4,2.1,7.5,2.1c2.4,0,4.7-0.4,6.7-1.1c2.1-0.7,3.9-1.8,5.5-3.3v-8c-1.8-1-3.6-1.7-5.5-2.1 c-1.9-0.5-4-0.7-6.3-0.7c-3.3,0-5.9,0.7-7.8,2.1C639.1,764.2,638.1,766,638.1,768.3z"/>
      <path class="st0" d="M680,781.7v-46.1h9.1v5.9c1.4-2.2,3.2-3.9,5.3-5.1c2.2-1.2,4.6-1.8,7.3-1.8c1,0,1.8,0.1,2.5,0.2 c0.7,0.1,1.4,0.3,2.1,0.5v8.2c-0.8-0.3-1.7-0.5-2.6-0.7c-0.9-0.2-1.8-0.3-2.7-0.3c-2.7,0-5,0.7-7.1,2.1c-2.1,1.4-3.7,3.5-4.8,6.3 v30.8H680z"/>
      <path class="st0" d="M750.8,776.5c-2.7,2.1-5.4,3.6-8.3,4.6c-2.9,1-6.1,1.5-9.5,1.5c-3.4,0-6.6-0.6-9.5-1.9c-3-1.2-5.5-2.9-7.7-5 c-2.2-2.1-3.9-4.6-5.1-7.6c-1.2-2.9-1.9-6.1-1.9-9.5c0-3.3,0.6-6.4,1.8-9.3c1.2-2.9,2.8-5.4,4.9-7.5c2.1-2.1,4.5-3.8,7.3-5 c2.8-1.2,5.9-1.9,9.1-1.9c3.1,0,6.1,0.6,8.8,1.9c2.7,1.2,5.1,2.9,7.1,5.1c2,2.1,3.5,4.7,4.7,7.7c1.1,3,1.7,6.1,1.7,9.5v2.6h-36.4 c0.6,3.8,2.4,7,5.3,9.5c2.9,2.5,6.3,3.8,10.3,3.8c2.2,0,4.4-0.4,6.4-1.1c2.1-0.7,3.8-1.7,5.3-3L750.8,776.5z M731.7,742.5 c-3.4,0-6.5,1.1-9,3.4c-2.6,2.3-4.2,5.3-4.8,8.9h27.4c-0.7-3.5-2.3-6.4-4.8-8.8C737.9,743.7,735,742.5,731.7,742.5z"/>
      <path class="st0" d="M802.9,776.5c-2.7,2.1-5.4,3.6-8.3,4.6c-2.9,1-6.1,1.5-9.5,1.5c-3.4,0-6.6-0.6-9.5-1.9c-3-1.2-5.5-2.9-7.7-5 c-2.2-2.1-3.9-4.6-5.1-7.6c-1.2-2.9-1.9-6.1-1.9-9.5c0-3.3,0.6-6.4,1.8-9.3c1.2-2.9,2.8-5.4,4.9-7.5c2.1-2.1,4.5-3.8,7.3-5 c2.8-1.2,5.9-1.9,9.1-1.9c3.1,0,6.1,0.6,8.8,1.9c2.7,1.2,5.1,2.9,7.1,5.1c2,2.1,3.5,4.7,4.7,7.7c1.1,3,1.7,6.1,1.7,9.5v2.6h-36.4 c0.6,3.8,2.4,7,5.3,9.5c2.9,2.5,6.3,3.8,10.3,3.8c2.2,0,4.4-0.4,6.4-1.1c2.1-0.7,3.8-1.7,5.3-3L802.9,776.5z M783.8,742.5 c-3.4,0-6.5,1.1-9,3.4c-2.6,2.3-4.2,5.3-4.8,8.9h27.4c-0.7-3.5-2.3-6.4-4.8-8.8C790,743.7,787.1,742.5,783.8,742.5z"/>
      <path class="st0" d="M814.9,781.7v-46.1h9.1v5.9c1.4-2.2,3.2-3.9,5.3-5.1c2.2-1.2,4.6-1.8,7.3-1.8c1,0,1.8,0.1,2.5,0.2 c0.7,0.1,1.4,0.3,2.1,0.5v8.2c-0.8-0.3-1.7-0.5-2.6-0.7c-0.9-0.2-1.8-0.3-2.7-0.3c-2.7,0-5,0.7-7.1,2.1c-2.1,1.4-3.7,3.5-4.8,6.3 v30.8H814.9z"/>
      <path class="st1" d="M861.7,771.7l7.5-9.4c3.7,3.2,7.2,5.5,10.7,7c3.4,1.5,7,2.2,10.8,2.2c3.9,0,7.1-0.7,9.4-2.2 c2.4-1.5,3.5-3.4,3.5-5.8c0-2.2-0.8-3.9-2.4-5.1c-1.6-1.2-4.3-2.1-8-2.7l-12.6-2.2c-5.4-0.9-9.6-2.8-12.4-5.7 c-2.8-2.9-4.2-6.6-4.2-11.2c0-5.9,2.3-10.6,6.8-14.1c4.5-3.4,10.6-5.2,18.3-5.2c4.6,0,9.2,0.8,13.9,2.4c4.7,1.6,8.8,3.7,12.3,6.5 l-7.1,9.8c-3.4-2.6-6.7-4.5-10-5.8c-3.3-1.2-6.6-1.9-10.1-1.9c-3.5,0-6.3,0.7-8.4,1.9c-2.1,1.3-3.2,3-3.2,5.2 c0,1.9,0.7,3.4,2.1,4.5c1.4,1.1,3.7,1.9,7,2.4l12,2c6.3,1,11,3,14.2,6s4.8,6.9,4.8,11.8c0,6.2-2.4,11.1-7.3,14.8 c-4.9,3.7-11.3,5.5-19.4,5.5c-5.1,0-10.1-1-15-2.9C869.8,777.8,865.5,775.1,861.7,771.7z"/>
      <path class="st1" d="M936,715.6v66.2h-12.4v-63.5L936,715.6z"/>
      <path class="st1" d="M951.9,728.9c-1.9,0-3.6-0.7-5-2.1c-1.4-1.4-2.1-3.1-2.1-5c0-1.9,0.7-3.6,2.1-5c1.4-1.4,3.1-2.1,5-2.1 c1.9,0,3.6,0.7,5,2.1c1.4,1.4,2.1,3.1,2.1,5c0,1.9-0.7,3.6-2.1,5C955.5,728.2,953.8,728.9,951.9,728.9z M958.1,734.5v47.2h-12.4 v-47.2H958.1z"/>
      <path class="st1" d="M1003.1,781.7v-3.9c-1.9,1.5-4,2.6-6.3,3.4c-2.3,0.8-4.7,1.1-7.2,1.1c-3.3,0-6.5-0.6-9.4-1.9 c-2.9-1.3-5.5-3-7.7-5.2c-2.2-2.2-3.9-4.7-5.1-7.7c-1.2-3-1.9-6.1-1.9-9.5c0-3.4,0.6-6.6,1.9-9.5c1.3-3,3-5.5,5.2-7.7 c2.2-2.2,4.8-3.9,7.8-5.1c3-1.2,6.2-1.9,9.6-1.9c2.3,0,4.5,0.3,6.8,1c2.2,0.6,4.2,1.6,6.1,2.8v-19.3l12.4-2.7v66.2H1003.1z M977.9,758.1c0,3.8,1.3,7,4,9.7c2.7,2.7,5.9,4,9.8,4c2.3,0,4.4-0.4,6.3-1.2c1.9-0.8,3.5-1.9,4.9-3.4v-18.4 c-1.3-1.4-3-2.5-4.9-3.3c-2-0.8-4.1-1.2-6.3-1.2c-3.9,0-7.2,1.3-9.8,3.9S977.9,754.2,977.9,758.1z"/>
      <path class="st1" d="M1067.4,775.8c-2.9,2.4-5.9,4.1-8.9,5.2c-3.1,1.1-6.5,1.6-10.2,1.6c-3.6,0-6.9-0.6-10-1.9 c-3.1-1.3-5.8-3-8.1-5.2c-2.3-2.2-4-4.8-5.3-7.8c-1.3-3-1.9-6.2-1.9-9.7c0-3.4,0.6-6.6,1.9-9.6c1.2-3,2.9-5.6,5.1-7.8 c2.2-2.2,4.8-3.9,7.8-5.2s6.2-1.9,9.6-1.9c3.3,0,6.4,0.7,9.3,1.9c2.9,1.3,5.3,3.1,7.4,5.3c2.1,2.2,3.7,4.9,4.9,8 c1.2,3.1,1.8,6.5,1.8,10.1v3.3h-35.2c0.8,3,2.5,5.3,4.9,7.2c2.4,1.8,5.3,2.7,8.5,2.7c2.1,0,4-0.3,5.8-1c1.8-0.7,3.4-1.6,4.6-2.8 L1067.4,775.8z M1046.9,743.9c-2.8,0-5.3,0.9-7.3,2.6c-2.1,1.7-3.5,4-4.3,6.9h23.1c-0.8-2.8-2.2-5.1-4.3-6.8 C1052.1,744.8,1049.7,743.9,1046.9,743.9z"/>
      <path class="st1" d="M1078.2,781.7v-47.2h12.4v5.2c1.5-2.1,3.3-3.6,5.5-4.7c2.1-1.1,4.5-1.6,7.1-1.6c1.2,0.1,2.2,0.2,3,0.3 c0.8,0.2,1.5,0.4,2.1,0.8v10.9c-0.9-0.4-1.9-0.7-3-1c-1.1-0.2-2.2-0.3-3.4-0.3c-2.4,0-4.6,0.6-6.7,1.8c-2,1.2-3.6,3-4.8,5.3v30.5 H1078.2z"/>
      <path class="st1" d="M1111.7,776.1l6.2-8.2c2.8,1.8,5.4,3.2,7.9,4c2.5,0.9,5,1.3,7.4,1.3c2.8,0,5-0.5,6.7-1.4 c1.7-0.9,2.5-2.1,2.5-3.6c0-1.2-0.5-2.2-1.4-2.9c-0.9-0.7-2.4-1.2-4.5-1.5l-9.1-1.4c-4.7-0.7-8.2-2.2-10.7-4.5 c-2.4-2.3-3.7-5.3-3.7-9.2c0-4.5,1.8-8.2,5.3-10.9c3.6-2.7,8.3-4.1,14.3-4.1c3.4,0,6.8,0.5,10.1,1.5c3.3,1,6.4,2.5,9.3,4.4l-6,8 c-2.6-1.5-5.1-2.6-7.4-3.4c-2.4-0.8-4.7-1.1-7.2-1.1c-2.2,0-4,0.4-5.4,1.3c-1.4,0.8-2,2-2,3.4c0,1.3,0.5,2.3,1.5,2.9 c1,0.7,2.6,1.2,4.9,1.5l9.1,1.4c4.6,0.7,8.1,2.2,10.7,4.5c2.5,2.4,3.8,5.3,3.8,9c0,2.2-0.5,4.3-1.6,6.2c-1.1,1.9-2.5,3.6-4.3,4.9 c-1.8,1.4-4,2.5-6.5,3.3c-2.5,0.8-5.3,1.2-8.2,1.2c-4.3,0-8.3-0.6-12.1-1.7C1117.5,779.8,1114.3,778.2,1111.7,776.1z"/>
    </g>
    <g>
      <polygon class="st0" points="510.5,723.3 510.5,784.4 434.9,828 359.2,784.4 359.2,697 402.6,672 434.9,690.6 458,677.2 &#10;&#9;&#9;&#9;480.3,664.3 480.3,664.3 467.1,656.7 453.9,664.3 438.2,673.4 434.9,675.3 415.9,664.3 402.6,656.7 398.9,658.8 346,689.4 &#10;&#9;&#9;&#9;346,792 434.9,843.3 523.7,792 523.7,715.6 &#9;&#9;"/>
      <polygon class="st1" points="493.5,702.5 480.3,710.1 438.2,734.5 434.9,736.4 402.6,717.8 398.9,719.9 398.9,730.9 434.9,751.7 &#10;&#9;&#9;&#9;458,738.3 484.1,723.3 497.3,715.6 510.5,708 521.2,701.8 523.7,700.4 523.7,689.4 520,687.2 514.6,690.4 506.8,694.9 &#9;&#9;"/>
      <polygon class="st1" points="480.3,679.6 459.2,691.8 458,692.5 453.9,694.9 453.9,694.9 438.2,703.9 434.9,705.8 415.9,694.9 &#10;&#9;&#9;&#9;415.9,694.9 402.7,687.2 402.6,687.2 402.6,687.2 398.9,689.4 398.9,689.4 372.5,704.7 372.5,747.2 372.9,746.4 385.7,753.8 &#10;&#9;&#9;&#9;434.9,782.2 484.1,753.8 484.1,769.1 434.9,797.5 431.6,795.6 385.7,769.1 372.5,761.5 372.5,776.7 434.9,812.8 497.3,776.7 &#10;&#9;&#9;&#9;497.3,730.9 490.2,735 484.1,738.5 464.6,749.8 434.9,766.9 385.7,738.5 385.7,712.3 402.6,702.5 434.9,721.1 458,707.8 &#10;&#9;&#9;&#9;467.1,702.5 467.1,702.5 480.3,694.9 480.3,694.9 484.1,692.7 493.5,687.2 493.6,687.2 506.8,679.6 493.5,672 493.5,672 &#10;&#9;&#9;&#9;493.5,672 &#9;&#9;"/>
    </g>
  </g>
</svg>