<?xml version="1.0" encoding="utf-8"?>
<svg viewBox="51.717 74.167 177.7 186.6" xmlns="http://www.w3.org/2000/svg">
  <polygon class="st0" points="510.5,723.3 510.5,784.4 434.9,828 359.2,784.4 359.2,697 402.6,672 434.9,690.6 458,677.2 &#10;&#9;&#9;&#9;480.3,664.3 480.3,664.3 467.1,656.7 453.9,664.3 438.2,673.4 434.9,675.3 415.9,664.3 402.6,656.7 398.9,658.8 346,689.4 &#10;&#9;&#9;&#9;346,792 434.9,843.3 523.7,792 523.7,715.6 &#9;&#9;" transform="matrix(1, 0, 0, 1, -294.283142, -582.533508)" style="fill: rgb(4, 4, 89);"/>
  <polygon class="st1" points="493.5,702.5 480.3,710.1 438.2,734.5 434.9,736.4 402.6,717.8 398.9,719.9 398.9,730.9 434.9,751.7 &#10;&#9;&#9;&#9;458,738.3 484.1,723.3 497.3,715.6 510.5,708 521.2,701.8 523.7,700.4 523.7,689.4 520,687.2 514.6,690.4 506.8,694.9 &#9;&#9;" transform="matrix(1, 0, 0, 1, -294.283142, -582.533508)" style="fill: rgb(127, 178, 38);"/>
  <polygon class="st1" points="480.3,679.6 459.2,691.8 458,692.5 453.9,694.9 453.9,694.9 438.2,703.9 434.9,705.8 415.9,694.9 &#10;&#9;&#9;&#9;415.9,694.9 402.7,687.2 402.6,687.2 402.6,687.2 398.9,689.4 398.9,689.4 372.5,704.7 372.5,747.2 372.9,746.4 385.7,753.8 &#10;&#9;&#9;&#9;434.9,782.2 484.1,753.8 484.1,769.1 434.9,797.5 431.6,795.6 385.7,769.1 372.5,761.5 372.5,776.7 434.9,812.8 497.3,776.7 &#10;&#9;&#9;&#9;497.3,730.9 490.2,735 484.1,738.5 464.6,749.8 434.9,766.9 385.7,738.5 385.7,712.3 402.6,702.5 434.9,721.1 458,707.8 &#10;&#9;&#9;&#9;467.1,702.5 467.1,702.5 480.3,694.9 480.3,694.9 484.1,692.7 493.5,687.2 493.6,687.2 506.8,679.6 493.5,672 493.5,672 &#10;&#9;&#9;&#9;493.5,672 &#9;&#9;" transform="matrix(1, 0, 0, 1, -294.283142, -582.533508)" style="fill: rgb(127, 178, 38);"/>
</svg>