<?xml version="1.0" encoding="utf-8"?>
<svg viewBox="9.132 150.656 781 151" xmlns="http://www.w3.org/2000/svg">
  <g>
    <title>Layer 1</title>
    <path fill="#1d1a49" stroke-width="0" d="m9.1325,150.65586l180.39391,0l60.1314,75.49983l-60.1314,75.50016l-180.39391,0l60.13139,-75.50016l-60.13139,-75.49983z" id="svg_1" stroke="#000"/>
    <path d="M 116.62 226.632 L 114.98 227.402 L 113.38 223.902 C 112.973 223.035 112.463 222.415 111.85 222.042 C 111.237 221.675 110.45 221.492 109.49 221.492 L 109.22 221.492 L 109.22 227.182 L 107.47 227.182 L 107.47 214.332 C 108.13 214.272 108.753 214.225 109.34 214.192 C 109.92 214.165 110.553 214.152 111.24 214.152 C 112.027 214.152 112.713 214.232 113.3 214.392 C 113.893 214.559 114.387 214.795 114.78 215.102 C 115.173 215.409 115.47 215.772 115.67 216.192 C 115.87 216.605 115.97 217.065 115.97 217.572 C 115.97 218.465 115.703 219.185 115.17 219.732 C 114.637 220.279 113.867 220.689 112.86 220.962 C 113.107 221.069 113.333 221.192 113.54 221.332 C 113.753 221.479 113.95 221.652 114.13 221.852 C 114.317 222.052 114.497 222.295 114.67 222.582 C 114.85 222.862 115.033 223.205 115.22 223.612 L 116.62 226.632 Z M 111.24 215.622 C 110.827 215.622 110.453 215.629 110.12 215.642 C 109.787 215.649 109.487 215.665 109.22 215.692 L 109.22 220.022 L 111.24 220.022 C 112.127 220.022 112.847 219.825 113.4 219.432 C 113.947 219.039 114.22 218.475 114.22 217.742 C 114.22 217.122 113.963 216.615 113.45 216.222 C 112.937 215.822 112.2 215.622 111.24 215.622 ZM 118.829 227.182 L 118.829 214.292 L 126.559 214.292 L 126.559 215.802 L 120.579 215.802 L 120.579 219.722 L 125.729 219.722 L 125.729 221.202 L 120.579 221.202 L 120.579 225.672 L 126.559 225.672 L 126.559 227.182 L 118.829 227.182 ZM 127.937 226.092 L 128.827 224.622 C 129.267 224.989 129.764 225.289 130.317 225.522 C 130.87 225.755 131.514 225.872 132.247 225.872 C 133.134 225.872 133.834 225.689 134.347 225.322 C 134.86 224.955 135.117 224.459 135.117 223.832 C 135.117 223.572 135.08 223.332 135.007 223.112 C 134.934 222.892 134.79 222.682 134.577 222.482 C 134.364 222.275 134.064 222.072 133.677 221.872 C 133.29 221.665 132.79 221.445 132.177 221.212 C 131.51 220.959 130.947 220.705 130.487 220.452 C 130.027 220.199 129.657 219.922 129.377 219.622 C 129.09 219.322 128.887 218.992 128.767 218.632 C 128.647 218.272 128.587 217.859 128.587 217.392 C 128.587 216.932 128.68 216.502 128.867 216.102 C 129.06 215.695 129.344 215.342 129.717 215.042 C 130.09 214.742 130.55 214.505 131.097 214.332 C 131.644 214.159 132.267 214.072 132.967 214.072 C 133.727 214.072 134.407 214.149 135.007 214.302 C 135.607 214.455 136.204 214.675 136.797 214.962 L 136.147 216.452 C 135.734 216.205 135.247 215.999 134.687 215.832 C 134.127 215.665 133.54 215.582 132.927 215.582 C 132.12 215.582 131.484 215.739 131.017 216.052 C 130.55 216.365 130.317 216.779 130.317 217.292 C 130.317 217.539 130.35 217.759 130.417 217.952 C 130.484 218.139 130.617 218.322 130.817 218.502 C 131.024 218.682 131.307 218.862 131.667 219.042 C 132.027 219.229 132.51 219.432 133.117 219.652 C 133.824 219.925 134.424 220.202 134.917 220.482 C 135.41 220.762 135.804 221.062 136.097 221.382 C 136.39 221.702 136.6 222.045 136.727 222.412 C 136.86 222.779 136.927 223.185 136.927 223.632 C 136.927 224.232 136.81 224.765 136.577 225.232 C 136.344 225.699 136.02 226.095 135.607 226.422 C 135.194 226.742 134.7 226.985 134.127 227.152 C 133.547 227.319 132.92 227.402 132.247 227.402 C 131.354 227.402 130.537 227.282 129.797 227.042 C 129.064 226.802 128.444 226.485 127.937 226.092 ZM 141.254 227.182 L 139.504 227.182 L 139.504 214.292 L 141.254 214.292 L 141.254 227.182 ZM 143.457 226.092 L 144.347 224.622 C 144.787 224.989 145.284 225.289 145.837 225.522 C 146.391 225.755 147.034 225.872 147.767 225.872 C 148.654 225.872 149.354 225.689 149.867 225.322 C 150.381 224.955 150.637 224.459 150.637 223.832 C 150.637 223.572 150.601 223.332 150.527 223.112 C 150.454 222.892 150.311 222.682 150.097 222.482 C 149.884 222.275 149.584 222.072 149.197 221.872 C 148.811 221.665 148.311 221.445 147.697 221.212 C 147.031 220.959 146.467 220.705 146.007 220.452 C 145.547 220.199 145.177 219.922 144.897 219.622 C 144.611 219.322 144.407 218.992 144.287 218.632 C 144.167 218.272 144.107 217.859 144.107 217.392 C 144.107 216.932 144.201 216.502 144.387 216.102 C 144.581 215.695 144.864 215.342 145.237 215.042 C 145.611 214.742 146.071 214.505 146.617 214.332 C 147.164 214.159 147.787 214.072 148.487 214.072 C 149.247 214.072 149.927 214.149 150.527 214.302 C 151.127 214.455 151.724 214.675 152.317 214.962 L 151.667 216.452 C 151.254 216.205 150.767 215.999 150.207 215.832 C 149.647 215.665 149.061 215.582 148.447 215.582 C 147.641 215.582 147.004 215.739 146.537 216.052 C 146.071 216.365 145.837 216.779 145.837 217.292 C 145.837 217.539 145.871 217.759 145.937 217.952 C 146.004 218.139 146.137 218.322 146.337 218.502 C 146.544 218.682 146.827 218.862 147.187 219.042 C 147.547 219.229 148.031 219.432 148.637 219.652 C 149.344 219.925 149.944 220.202 150.437 220.482 C 150.931 220.762 151.324 221.062 151.617 221.382 C 151.911 221.702 152.121 222.045 152.247 222.412 C 152.381 222.779 152.447 223.185 152.447 223.632 C 152.447 224.232 152.331 224.765 152.097 225.232 C 151.864 225.699 151.541 226.095 151.127 226.422 C 150.714 226.742 150.221 226.985 149.647 227.152 C 149.067 227.319 148.441 227.402 147.767 227.402 C 146.874 227.402 146.057 227.282 145.317 227.042 C 144.584 226.802 143.964 226.485 143.457 226.092 ZM 153.544 215.842 L 153.544 214.292 L 163.214 214.292 L 163.214 215.842 L 159.254 215.842 L 159.254 227.182 L 157.504 227.182 L 157.504 215.842 L 153.544 215.842 ZM 172.331 227.182 L 170.581 227.182 L 170.581 214.292 L 172.331 214.292 L 172.331 227.182 ZM 174.164 215.842 L 174.164 214.292 L 183.834 214.292 L 183.834 215.842 L 179.874 215.842 L 179.874 227.182 L 178.124 227.182 L 178.124 215.842 L 174.164 215.842 Z" transform="matrix(1.2393150329589844, 0, 0, 1.5208630561828613, -33.05437088012695, -107.19306945800781)" style="fill: rgb(255, 255, 255); stroke: rgb(0, 0, 0); stroke-width: 0px; white-space: pre;"/>
    <path fill="#404f75" stroke-width="0" d="m189.29071,150.65586l180.39391,0l60.1314,75.49983l-60.1314,75.50016l-180.39391,0l60.13139,-75.50016l-60.13139,-75.49983z" id="svg_13" stroke="#000"/>
    <text id="svg_14" transform="matrix(1.239315, 0, 0, 1.520863, -34.054371, -107.193069)" style="fill: rgb(255, 255, 255); font-family: &quot;Trebuchet MS&quot;, Gadget, sans-serif; font-size: 18.4106px; stroke: rgb(0, 0, 0); stroke-width: 0px; white-space: pre;" y="227.1820068359375" x="244.32899475097656">EMBRACE IT</text>
    <path fill="#6c6b84" stroke-width="0" d="m369.44892,150.65586l180.39391,0l60.13141,75.49983l-60.13141,75.50016l-180.39391,0l60.13139,-75.50016l-60.13139,-75.49983z" id="svg_15" stroke="#000"/>
    <text id="svg_16" transform="matrix(1.239315, 0, 0, 1.520863, -33.054371, -108.193069)" style="fill: rgb(255, 255, 255); font-family: &quot;Trebuchet MS&quot;, Gadget, sans-serif; font-size: 18.4106px; stroke: rgb(0, 0, 0); stroke-width: 0px; white-space: pre;" x="385.1310119628906" y="227.1820068359375">CHAMPION IT</text>
    <path fill="#7ab836" stroke-width="0" d="m549.60713,150.65586l180.39391,0l60.13141,75.49983l-60.13141,75.50016l-180.39391,0l60.13139,-75.50016l-60.13139,-75.49983z" id="svg_17" stroke="#000"/>
    <text id="svg_18" transform="matrix(1.239315, 0, 0, 1.520863, -29.054371, -108.193069)" style="fill: rgb(255, 255, 255); font-family: &quot;Trebuchet MS&quot;, Gadget, sans-serif; font-size: 18.4106px; stroke: rgb(0, 0, 0); stroke-width: 0px; white-space: pre;" y="227.1820068359375" x="534.3060302734375">CREATE IT</text>
  </g>
</svg>