<?xml version="1.0" encoding="utf-8"?>
<svg viewBox="9.132 150.656 781 151" xmlns="http://www.w3.org/2000/svg">
  <g>
    <title>Layer 1</title>
    <path fill="#1d1a49" stroke-width="0" d="m9.1325,150.65586l180.39391,0l60.1314,75.49983l-60.1314,75.50016l-180.39391,0l60.13139,-75.50016l-60.13139,-75.49983z" id="svg_1" stroke="#000"/>
    <path d="M 114.85 227.182 L 109.12 216.542 L 109.12 227.182 L 107.47 227.182 L 107.47 214.292 L 109.79 214.292 L 115.48 225.012 L 115.48 214.292 L 117.13 214.292 L 117.13 227.182 L 114.85 227.182 ZM 120.449 227.182 L 120.449 214.292 L 128.179 214.292 L 128.179 215.802 L 122.199 215.802 L 122.199 219.722 L 127.349 219.722 L 127.349 221.202 L 122.199 221.202 L 122.199 225.672 L 128.179 225.672 L 128.179 227.182 L 120.449 227.182 ZM 135.897 221.732 L 135.897 220.352 L 140.217 220.352 L 140.217 227.182 L 138.677 227.182 L 138.677 225.892 C 138.244 226.272 137.721 226.619 137.107 226.932 C 136.494 227.245 135.814 227.402 135.067 227.402 C 134.314 227.402 133.627 227.255 133.007 226.962 C 132.381 226.669 131.837 226.245 131.377 225.692 C 130.924 225.139 130.571 224.472 130.317 223.692 C 130.057 222.912 129.927 222.039 129.927 221.072 C 129.927 220.039 130.061 219.095 130.327 218.242 C 130.587 217.389 130.971 216.652 131.477 216.032 C 131.977 215.412 132.594 214.932 133.327 214.592 C 134.054 214.245 134.884 214.072 135.817 214.072 C 136.631 214.072 137.347 214.172 137.967 214.372 C 138.587 214.565 139.171 214.815 139.717 215.122 L 139.077 216.582 C 138.564 216.295 138.044 216.062 137.517 215.882 C 136.984 215.695 136.387 215.602 135.727 215.602 C 135.147 215.602 134.614 215.719 134.127 215.952 C 133.634 216.185 133.211 216.529 132.857 216.982 C 132.497 217.435 132.217 217.999 132.017 218.672 C 131.817 219.339 131.717 220.102 131.717 220.962 C 131.717 221.735 131.807 222.425 131.987 223.032 C 132.174 223.639 132.434 224.152 132.767 224.572 C 133.094 224.999 133.487 225.322 133.947 225.542 C 134.407 225.762 134.914 225.872 135.467 225.872 C 135.814 225.872 136.141 225.832 136.447 225.752 C 136.754 225.672 137.034 225.569 137.287 225.442 C 137.547 225.315 137.784 225.175 137.997 225.022 C 138.217 224.869 138.407 224.712 138.567 224.552 L 138.567 221.732 L 135.897 221.732 ZM 150.736 225.622 L 150.736 227.182 L 143.076 227.182 L 143.076 214.292 L 144.826 214.292 L 144.826 225.622 L 150.736 225.622 ZM 152.484 227.182 L 152.484 214.292 L 160.214 214.292 L 160.214 215.802 L 154.234 215.802 L 154.234 219.722 L 159.384 219.722 L 159.384 221.202 L 154.234 221.202 L 154.234 225.672 L 160.214 225.672 L 160.214 227.182 L 152.484 227.182 ZM 163.752 220.722 C 163.752 221.495 163.852 222.199 164.052 222.832 C 164.252 223.459 164.535 224.002 164.902 224.462 C 165.262 224.915 165.692 225.262 166.192 225.502 C 166.698 225.749 167.252 225.872 167.852 225.872 C 168.452 225.872 168.975 225.802 169.422 225.662 C 169.862 225.522 170.292 225.329 170.712 225.082 L 171.242 226.542 C 170.788 226.782 170.268 226.985 169.682 227.152 C 169.102 227.319 168.425 227.402 167.652 227.402 C 166.805 227.402 166.035 227.249 165.342 226.942 C 164.648 226.635 164.048 226.195 163.542 225.622 C 163.042 225.055 162.652 224.362 162.372 223.542 C 162.098 222.729 161.962 221.812 161.962 220.792 C 161.962 219.812 162.098 218.912 162.372 218.092 C 162.652 217.265 163.048 216.555 163.562 215.962 C 164.082 215.369 164.705 214.905 165.432 214.572 C 166.165 214.239 166.978 214.072 167.872 214.072 C 168.498 214.072 169.058 214.132 169.552 214.252 C 170.052 214.365 170.522 214.525 170.962 214.732 L 170.432 216.212 C 170.052 216.025 169.662 215.879 169.262 215.772 C 168.862 215.659 168.392 215.602 167.852 215.602 C 167.265 215.602 166.718 215.715 166.212 215.942 C 165.712 216.169 165.278 216.502 164.912 216.942 C 164.538 217.389 164.252 217.925 164.052 218.552 C 163.852 219.185 163.752 219.909 163.752 220.722 ZM 172.157 215.842 L 172.157 214.292 L 181.827 214.292 L 181.827 215.842 L 177.867 215.842 L 177.867 227.182 L 176.117 227.182 L 176.117 215.842 L 172.157 215.842 ZM 190.944 227.182 L 189.194 227.182 L 189.194 214.292 L 190.944 214.292 L 190.944 227.182 ZM 192.777 215.842 L 192.777 214.292 L 202.447 214.292 L 202.447 215.842 L 198.487 215.842 L 198.487 227.182 L 196.737 227.182 L 196.737 215.842 L 192.777 215.842 Z" transform="matrix(1.2393150329589844, 0, 0, 1.5208630561828613, -44.05437088012695, -107.19306945800781)" style="fill: rgb(255, 255, 255); stroke: rgb(0, 0, 0); stroke-width: 0px; white-space: pre;"/>
    <path fill="#404f75" stroke-width="0" d="m189.29071,150.65586l180.39391,0l60.1314,75.49983l-60.1314,75.50016l-180.39391,0l60.13139,-75.50016l-60.13139,-75.49983z" id="svg_13" stroke="#000"/>
    <text id="svg_14" transform="matrix(1.239315, 0, 0, 1.520863, -32.054371, -107.193069)" style="fill: rgb(255, 255, 255); font-family: &quot;Trebuchet MS&quot;, Gadget, sans-serif; font-size: 18.4106px; stroke: rgb(0, 0, 0); stroke-width: 0px; white-space: pre;" y="227.1820068359375" x="244.32899475097656">LEARN IT</text>
    <path fill="#6c6b84" stroke-width="0" d="m369.44892,150.65586l180.39391,0l60.13141,75.49983l-60.13141,75.50016l-180.39391,0l60.13139,-75.50016l-60.13139,-75.49983z" id="svg_15" stroke="#000"/>
    <text id="svg_16" transform="matrix(1.239315, 0, 0, 1.520863, -34.054371, -108.193069)" style="fill: rgb(255, 255, 255); font-family: &quot;Trebuchet MS&quot;, Gadget, sans-serif; font-size: 18.4106px; stroke: rgb(0, 0, 0); stroke-width: 0px; white-space: pre;" x="385.1310119628906" y="227.1820068359375">MASTER IT</text>
    <path fill="#7ab836" stroke-width="0" d="m549.60713,150.65586l180.39391,0l60.13141,75.49983l-60.13141,75.50016l-180.39391,0l60.13139,-75.50016l-60.13139,-75.49983z" id="svg_17" stroke="#000"/>
    <text id="svg_18" transform="matrix(1.239315, 0, 0, 1.520863, -33.054371, -108.193069)" style="fill: rgb(255, 255, 255); font-family: &quot;Trebuchet MS&quot;, Gadget, sans-serif; font-size: 18.4106px; stroke: rgb(0, 0, 0); stroke-width: 0px; white-space: pre;" y="227.1820068359375" x="534.3060302734375">TEACH IT</text>
  </g>
</svg>