<?xml version="1.0" encoding="utf-8"?>
<svg viewBox="9.132 150.656 781 151" xmlns="http://www.w3.org/2000/svg">
  <g>
    <title>Layer 1</title>
    <text fill="#000000" stroke-width="0" x="131.5" y="244.453125" id="svg_7" font-size="24" font-family="Helvetica, Arial, sans-serif" text-anchor="start" transform="matrix(15.355104295039155,0,0,1,-1923.0838253020524,0) " stroke="#000" style="white-space: pre;"/>
    <path fill="#1d1a49" stroke-width="0" d="m9.1325,150.65586l180.39391,0l60.1314,75.49983l-60.1314,75.50016l-180.39391,0l60.13139,-75.50016l-60.13139,-75.49983z" id="svg_1" stroke="#000"/>
    <text id="svg_8" transform="matrix(1.239315, 0, 0, 1.520863, -27.054371, -107.193069)" style="fill: rgb(255, 255, 255); font-family: &quot;Trebuchet MS&quot;, Gadget, sans-serif; font-size: 18.4106px; stroke: rgb(0, 0, 0); stroke-width: 0px; white-space: pre;" x="105.81" y="227.182">RESIST IT</text>
    <text fill="#ffffff" stroke-width="0" x="297.218558" y="235.024554" id="svg_10" font-size="24" font-family="'Trebuchet MS', Gadget, sans-serif" text-anchor="start" transform="matrix(1.239315332449081,0,0,1.5208632210175779,-40.05436910231326,-106.19307015507042) " stroke="#000" style="white-space: pre;">EMBRACE IT</text>
    <text fill="#ffffff" stroke-width="0" x="482.164644" y="235.024554" id="svg_12" font-size="24" font-family="'Trebuchet MS', Gadget, sans-serif" text-anchor="start" transform="matrix(1.239315332449081,0,0,1.5208632210175779,-40.05436910231326,-106.19307015507042) " stroke="#000" style="white-space: pre;">EMBRACE IT</text>
    <path fill="#404f75" stroke-width="0" d="m189.29071,150.65586l180.39391,0l60.1314,75.49983l-60.1314,75.50016l-180.39391,0l60.13139,-75.50016l-60.13139,-75.49983z" id="svg_13" stroke="#000"/>
    <text id="svg_14" transform="matrix(1.239315, 0, 0, 1.520863, -28.054371, -107.193069)" style="fill: rgb(255, 255, 255); font-family: &quot;Trebuchet MS&quot;, Gadget, sans-serif; font-size: 18.4106px; stroke: rgb(0, 0, 0); stroke-width: 0px; white-space: pre;" y="227.1820068359375" x="244.32899475097656">DEFLECT IT</text>
    <path fill="#6c6b84" stroke-width="0" d="m369.44892,150.65586l180.39391,0l60.13141,75.49983l-60.13141,75.50016l-180.39391,0l60.13139,-75.50016l-60.13139,-75.49983z" id="svg_15" stroke="#000"/>
    <text id="svg_16" transform="matrix(1.239315, 0, 0, 1.520863, -13.054371, -122.193069)" style="fill: rgb(255, 255, 255); font-family: &quot;Trebuchet MS&quot;, Gadget, sans-serif; font-size: 18.4106px; stroke: rgb(0, 0, 0); stroke-width: 0px; white-space: pre;" x="385.1310119628906" y="227.1820068359375">COMPLY <tspan x="385.1310119628906" dy="1em">​</tspan>WITH IT</text>
    <path fill="#7ab836" stroke-width="0" d="m549.60713,150.65586l180.39391,0l60.13141,75.49983l-60.13141,75.50016l-180.39391,0l60.13139,-75.50016l-60.13139,-75.49983z" id="svg_17" stroke="#000"/>
    <text id="svg_18" transform="matrix(1.239315, 0, 0, 1.520863, -23.054371, -108.193069)" style="fill: rgb(255, 255, 255); font-family: &quot;Trebuchet MS&quot;, Gadget, sans-serif; font-size: 18.4106px; stroke: rgb(0, 0, 0); stroke-width: 0px; white-space: pre;" y="227.1820068359375" x="534.3060302734375">OWN IT</text>
  </g>
</svg>