<?xml version="1.0" encoding="utf-8"?>
<svg viewBox="9.132 150.656 781 151" xmlns="http://www.w3.org/2000/svg">
  <g>
    <title>Layer 1</title>
    <path fill="#1d1a49" stroke-width="0" d="m9.1325,150.65586l180.39391,0l60.1314,75.49983l-60.1314,75.50016l-180.39391,0l60.13139,-75.50016l-60.13139,-75.49983z" id="svg_1" stroke="#000"/>
    <path d="M 107.49 227.332 L 105.99 226.722 L 111.04 214.292 L 112.95 214.292 L 117.92 226.722 L 116.32 227.362 L 114.89 223.682 L 108.92 223.682 L 107.49 227.332 Z M 111.9 216.022 L 109.47 222.212 L 114.32 222.212 L 111.9 216.022 ZM 121.832 227.182 L 117.092 214.752 L 118.812 214.092 L 122.862 225.272 L 126.932 214.152 L 128.512 214.752 L 123.802 227.182 L 121.832 227.182 ZM 129.062 220.722 C 129.062 219.775 129.199 218.899 129.472 218.092 C 129.752 217.279 130.152 216.575 130.672 215.982 C 131.192 215.382 131.829 214.915 132.582 214.582 C 133.329 214.242 134.182 214.072 135.142 214.072 C 136.082 214.072 136.932 214.249 137.692 214.602 C 138.445 214.949 139.082 215.422 139.602 216.022 C 140.122 216.629 140.525 217.332 140.812 218.132 C 141.092 218.939 141.232 219.802 141.232 220.722 C 141.232 221.642 141.095 222.505 140.822 223.312 C 140.542 224.125 140.139 224.835 139.612 225.442 C 139.085 226.049 138.449 226.529 137.702 226.882 C 136.949 227.229 136.095 227.402 135.142 227.402 C 134.182 227.402 133.329 227.229 132.582 226.882 C 131.829 226.529 131.192 226.049 130.672 225.442 C 130.152 224.835 129.752 224.125 129.472 223.312 C 129.199 222.505 129.062 221.642 129.062 220.722 Z M 130.852 220.722 C 130.852 221.382 130.945 222.025 131.132 222.652 C 131.325 223.279 131.605 223.832 131.972 224.312 C 132.339 224.792 132.789 225.175 133.322 225.462 C 133.855 225.749 134.462 225.892 135.142 225.892 C 135.849 225.892 136.469 225.762 137.002 225.502 C 137.542 225.235 137.992 224.872 138.352 224.412 C 138.712 223.952 138.985 223.405 139.172 222.772 C 139.352 222.139 139.442 221.455 139.442 220.722 C 139.442 220.055 139.345 219.415 139.152 218.802 C 138.952 218.189 138.669 217.642 138.302 217.162 C 137.935 216.689 137.485 216.305 136.952 216.012 C 136.419 215.725 135.815 215.582 135.142 215.582 C 134.462 215.582 133.855 215.715 133.322 215.982 C 132.789 216.242 132.339 216.602 131.972 217.062 C 131.605 217.522 131.325 218.065 131.132 218.692 C 130.945 219.319 130.852 219.995 130.852 220.722 ZM 145.562 227.182 L 143.812 227.182 L 143.812 214.292 L 145.562 214.292 L 145.562 227.182 ZM 148.875 227.142 L 148.875 214.332 C 149.449 214.272 150.012 214.225 150.565 214.192 C 151.119 214.165 151.752 214.152 152.465 214.152 C 153.565 214.152 154.515 214.322 155.315 214.662 C 156.115 215.009 156.779 215.482 157.305 216.082 C 157.832 216.682 158.222 217.382 158.475 218.182 C 158.729 218.975 158.855 219.822 158.855 220.722 C 158.855 221.615 158.725 222.465 158.465 223.272 C 158.205 224.072 157.809 224.775 157.275 225.382 C 156.742 225.982 156.062 226.455 155.235 226.802 C 154.409 227.155 153.415 227.332 152.255 227.332 C 151.562 227.332 150.952 227.315 150.425 227.282 C 149.905 227.255 149.389 227.209 148.875 227.142 Z M 152.405 215.652 C 152.052 215.652 151.729 215.662 151.435 215.682 C 151.135 215.702 150.865 215.725 150.625 215.752 L 150.625 225.712 C 150.879 225.745 151.149 225.769 151.435 225.782 C 151.715 225.795 152.009 225.802 152.315 225.802 C 153.135 225.802 153.849 225.675 154.455 225.422 C 155.055 225.169 155.549 224.819 155.935 224.372 C 156.322 223.925 156.605 223.392 156.785 222.772 C 156.972 222.152 157.065 221.469 157.065 220.722 C 157.065 220.055 156.972 219.419 156.785 218.812 C 156.605 218.205 156.325 217.665 155.945 217.192 C 155.565 216.719 155.079 216.345 154.485 216.072 C 153.899 215.792 153.205 215.652 152.405 215.652 ZM 168.704 227.182 L 166.954 227.182 L 166.954 214.292 L 168.704 214.292 L 168.704 227.182 ZM 170.537 215.842 L 170.537 214.292 L 180.207 214.292 L 180.207 215.842 L 176.247 215.842 L 176.247 227.182 L 174.497 227.182 L 174.497 215.842 L 170.537 215.842 Z" transform="matrix(1.2393150329589844, 0, 0, 1.5208630561828613, -29.054370880126953, -107.19306945800781)" style="fill: rgb(255, 255, 255); stroke: rgb(0, 0, 0); stroke-width: 0px; white-space: pre;"/>
    <path fill="#404f75" stroke-width="0" d="m189.29071,150.65586l180.39391,0l60.1314,75.49983l-60.1314,75.50016l-180.39391,0l60.13139,-75.50016l-60.13139,-75.49983z" id="svg_13" stroke="#000"/>
    <text id="svg_14" transform="matrix(1.239315, 0, 0, 1.520863, -31.054371, -107.193069)" style="fill: rgb(255, 255, 255); font-family: &quot;Trebuchet MS&quot;, Gadget, sans-serif; font-size: 18.4106px; stroke: rgb(0, 0, 0); stroke-width: 0px; white-space: pre;" y="227.1820068359375" x="244.32899475097656">ESCALATE IT</text>
    <path fill="#6c6b84" stroke-width="0" d="m369.44892,150.65586l180.39391,0l60.13141,75.49983l-60.13141,75.50016l-180.39391,0l60.13139,-75.50016l-60.13139,-75.49983z" id="svg_15" stroke="#000"/>
    <text id="svg_16" transform="matrix(1.239315, 0, 0, 1.520863, -35.054371, -108.193069)" style="fill: rgb(255, 255, 255); font-family: &quot;Trebuchet MS&quot;, Gadget, sans-serif; font-size: 18.4106px; stroke: rgb(0, 0, 0); stroke-width: 0px; white-space: pre;" x="385.1310119628906" y="227.1820068359375">CALCULATE IT</text>
    <path fill="#7ab836" stroke-width="0" d="m549.60713,150.65586l180.39391,0l60.13141,75.49983l-60.13141,75.50016l-180.39391,0l60.13139,-75.50016l-60.13139,-75.49983z" id="svg_17" stroke="#000"/>
    <text id="svg_18" transform="matrix(1.239315, 0, 0, 1.520863, -22.054371, -108.193069)" style="fill: rgb(255, 255, 255); font-family: &quot;Trebuchet MS&quot;, Gadget, sans-serif; font-size: 18.4106px; stroke: rgb(0, 0, 0); stroke-width: 0px; white-space: pre;" y="227.1820068359375" x="534.3060302734375">TAKE IT</text>
  </g>
</svg>