<?xml version="1.0" encoding="utf-8"?>
<svg viewBox="9.132 150.656 781 151" xmlns="http://www.w3.org/2000/svg">
  <g>
    <title>Layer 1</title>
    <text stroke="#000" transform="matrix(15.355104295039155,0,0,1,-1923.0838253020524,0) " text-anchor="start" font-family="Helvetica, Arial, sans-serif" font-size="24" id="svg_7" y="244.453125" x="131.5" stroke-width="0" fill="#000000" style="white-space: pre;"/>
    <path stroke="#000" id="svg_1" d="m9.1325,150.655861l180.393907,0l60.131406,75.499834l-60.131406,75.50016l-180.393907,0l60.131387,-75.50016l-60.131387,-75.499834z" stroke-width="0" fill="#1d1a49"/>
    <text transform="matrix(1.239315, 0, 0, 1.520863, -35.054371, -121.193069)" id="svg_8" style="fill: rgb(255, 255, 255); font-family: &quot;Trebuchet MS&quot;, Gadget, sans-serif; font-size: 16.438px; line-height: 28.4049px; stroke: rgb(0, 0, 0); stroke-width: 0px; white-space: pre;"><tspan x="105.81" y="227.182">DETACH</tspan><tspan x="105.81" dy="1em">​</tspan><tspan>FROM IT</tspan></text>
    <text stroke="#000" transform="matrix(1.239315332449081,0,0,1.5208632210175779,-40.05436910231326,-106.19307015507042) " text-anchor="start" font-family="'Trebuchet MS', Gadget, sans-serif" font-size="24" id="svg_10" y="235.024554" x="297.218558" stroke-width="0" fill="#ffffff" style="white-space: pre;">EMBRACE IT</text>
    <text stroke="#000" transform="matrix(1.239315332449081,0,0,1.5208632210175779,-40.05436910231326,-106.19307015507042) " text-anchor="start" font-family="'Trebuchet MS', Gadget, sans-serif" font-size="24" id="svg_12" y="235.024554" x="482.164644" stroke-width="0" fill="#ffffff" style="white-space: pre;">EMBRACE IT</text>
    <path stroke="#000" id="svg_13" d="m189.290711,150.655861l180.393907,0l60.131406,75.499834l-60.131406,75.50016l-180.393907,0l60.131387,-75.50016l-60.131387,-75.499834z" stroke-width="0" fill="#404f75"/>
    <text transform="matrix(1.239315, 0, 0, 1.520863, -40.054371, -110.193069)" id="svg_14" style="fill: rgb(255, 255, 255); font-family: &quot;Trebuchet MS&quot;, Gadget, sans-serif; font-size: 16.438px; line-height: 28.4049px; stroke: rgb(0, 0, 0); stroke-width: 0px; white-space: pre;" x="244.329" y="227.182">ESCALATE IT</text>
    <path stroke="#000" id="svg_15" d="m369.448923,150.655861l180.393907,0l60.131406,75.499834l-60.131406,75.50016l-180.393907,0l60.131387,-75.50016l-60.131387,-75.499834z" stroke-width="0" fill="#6c6b84"/>
    <text transform="matrix(1.239315, 0, 0, 1.520863, -41.054371, -122.193069)" id="svg_16" style="fill: rgb(255, 255, 255); font-family: &quot;Trebuchet MS&quot;, Gadget, sans-serif; font-size: 16.438px; line-height: 28.4049px; stroke: rgb(0, 0, 0); stroke-width: 0px; white-space: pre;"><tspan x="385.131" y="227.182">COLLABORATIVE</tspan><tspan x="385.131" dy="1em">​</tspan><tspan>CO-OPERATION</tspan></text>
    <path stroke="#000" id="svg_17" d="m549.607134,150.655861l180.393907,0l60.131406,75.499834l-60.131406,75.50016l-180.393907,0l60.131387,-75.50016l-60.131387,-75.499834z" stroke-width="0" fill="#7ab836"/>
    <text transform="matrix(1.239315, 0, 0, 1.520863, -46.054371, -108.193069)" id="svg_18" style="fill: rgb(255, 255, 255); font-family: &quot;Trebuchet MS&quot;, Gadget, sans-serif; font-size: 16.438px; line-height: 28.4049px; stroke: rgb(0, 0, 0); stroke-width: 0px; white-space: pre;" x="534.306" y="227.182">SELF-REFLECTION</text>
  </g>
</svg>